<?xml version="1.0" encoding="UTF-8"?>
<!DOCTYPE svg PUBLIC "-//W3C//DTD SVG 1.1//EN" "http://www.w3.org/Graphics/SVG/1.1/DTD/svg11.dtd">
<svg xmlns="http://www.w3.org/2000/svg" version="1.1" width="632px" height="395px" style="shape-rendering:geometricPrecision; text-rendering:geometricPrecision; image-rendering:optimizeQuality; fill-rule:evenodd; clip-rule:evenodd" xmlns:xlink="http://www.w3.org/1999/xlink">
<g><path style="opacity:0.014" fill="#f21001" d="M 280.5,-0.5 C 283.833,-0.5 287.167,-0.5 290.5,-0.5C 240.896,28.3066 191.23,57.1399 141.5,86C 137.819,87.8369 135.485,90.6702 134.5,94.5C 133.504,94.4142 132.671,94.7476 132,95.5C 131.333,163.167 131.333,230.833 132,298.5C 132.671,299.252 133.504,299.586 134.5,299.5C 135.485,303.33 137.819,306.163 141.5,308C 191.23,336.86 240.896,365.693 290.5,394.5C 287.167,394.5 283.833,394.5 280.5,394.5C 269.564,387.692 258.564,380.858 247.5,374C 216.423,355.933 185.09,338.266 153.5,321C 145.054,316.361 137.221,310.861 130,304.5C 129.529,302.754 128.862,301.087 128,299.5C 127.333,231.167 127.333,162.833 128,94.5C 129.306,90.1867 131.806,86.6867 135.5,84C 141.764,80.7302 147.764,77.0635 153.5,73C 185.09,55.7338 216.423,38.0671 247.5,20C 258.564,13.1416 269.564,6.30826 280.5,-0.5 Z"/></g>
<g><path style="opacity:0.013" fill="#f21001" d="M 340.5,-0.5 C 343.833,-0.5 347.167,-0.5 350.5,-0.5C 357.435,3.97576 364.435,8.47576 371.5,13C 412.833,36.6667 454.167,60.3333 495.5,84C 499.194,86.6867 501.694,90.1867 503,94.5C 503.667,162.833 503.667,231.167 503,299.5C 501.694,303.813 499.194,307.313 495.5,310C 454.167,333.667 412.833,357.333 371.5,381C 364.435,385.524 357.435,390.024 350.5,394.5C 347.167,394.5 343.833,394.5 340.5,394.5C 382.797,370.351 424.797,345.685 466.5,320.5C 474.54,315.816 482.54,311.15 490.5,306.5C 494.133,304.701 496.966,302.035 499,298.5C 499.667,230.833 499.667,163.167 499,95.5C 497.18,92.7832 495.014,90.2832 492.5,88C 487.679,85.7566 483.012,83.2566 478.5,80.5C 477.078,79.075 475.411,78.075 473.5,77.5C 429.299,51.2342 384.965,25.2342 340.5,-0.5 Z"/></g>
<g><path style="opacity:1" fill="#ef413b" d="M 290.5,-0.5 C 307.167,-0.5 323.833,-0.5 340.5,-0.5C 384.965,25.2342 429.299,51.2342 473.5,77.5C 472.448,77.3505 471.448,77.5172 470.5,78C 471.654,78.9138 471.487,79.7471 470,80.5C 467.192,74.0171 465.692,74.1837 465.5,81C 465.905,81.9454 466.572,82.6121 467.5,83C 465.149,85.259 465.815,86.759 469.5,87.5C 471.434,87.0995 472.934,86.0995 474,84.5C 474.711,86.3668 474.211,87.8668 472.5,89C 474.808,90.8665 477.475,91.8665 480.5,92C 479.833,92.3333 479.167,92.6667 478.5,93C 482.144,92.6642 484.477,94.1642 485.5,97.5C 485.5,163.833 485.5,230.167 485.5,296.5C 485.141,298.485 484.308,299.151 483,298.5C 482.83,300.715 482.163,302.715 481,304.5C 478.403,302.098 475.569,302.265 472.5,305C 472.833,305.333 473.167,305.667 473.5,306C 469.861,305.572 467.028,307.072 465,310.5C 461.07,310.223 458.57,312.223 457.5,316.5C 457.667,317.167 457.833,317.833 458,318.5C 458.333,317.5 458.667,316.5 459,315.5C 460.019,317.269 460.186,318.936 459.5,320.5C 461.771,321.363 464.105,321.363 466.5,320.5C 424.797,345.685 382.797,370.351 340.5,394.5C 323.833,394.5 307.167,394.5 290.5,394.5C 240.896,365.693 191.23,336.86 141.5,308C 137.819,306.163 135.485,303.33 134.5,299.5C 134.892,297.821 135.392,296.154 136,294.5C 136.667,229.5 136.667,164.5 136,99.5C 135.392,97.8455 134.892,96.1789 134.5,94.5C 135.485,90.6702 137.819,87.8369 141.5,86C 191.23,57.1399 240.896,28.3066 290.5,-0.5 Z M 312.5,23.5 C 314.527,23.3379 316.527,23.5045 318.5,24C 366.845,51.6852 415.178,79.3519 463.5,107C 465,107.833 466.167,109 467,110.5C 467.829,168.541 467.662,226.541 466.5,284.5C 423.551,309.645 380.551,334.812 337.5,360C 330.267,363.784 322.934,367.284 315.5,370.5C 305.744,365.927 296.077,361.093 286.5,356C 249.43,333.801 212.096,312.134 174.5,291C 170.698,288.856 167.198,286.356 164,283.5C 163.171,225.459 163.338,167.459 164.5,109.5C 213.864,80.8203 263.197,52.1536 312.5,23.5 Z"/></g>
<g><path style="opacity:0.015" fill="#f01902" d="M 336.5,26.5 C 336.414,27.4959 336.748,28.3292 337.5,29C 345.017,32.2716 352.017,36.2716 358.5,41C 359.793,41.49 361.127,41.6567 362.5,41.5C 362.511,43.0174 363.177,44.1841 364.5,45C 375.663,51.0806 386.663,57.414 397.5,64C 400.758,65.4665 404.092,66.6332 407.5,67.5C 407.369,68.3764 407.702,69.0431 408.5,69.5C 413.4,72.4489 418.4,75.1155 423.5,77.5C 438.805,87.8264 454.805,97.1597 471.5,105.5C 472.662,166.096 472.829,226.763 472,287.5C 453.588,297.621 435.421,308.121 417.5,319C 412.932,321.986 408.598,325.152 404.5,328.5C 402.199,329.06 399.866,329.56 397.5,330C 386.663,336.586 375.663,342.919 364.5,349C 363.177,349.816 362.511,350.983 362.5,352.5C 357.366,352.4 353.366,354.4 350.5,358.5C 346.075,360.563 341.742,362.729 337.5,365C 336.748,365.671 336.414,366.504 336.5,367.5C 329.743,369.209 323.409,372.042 317.5,376C 316.167,376.667 314.833,376.667 313.5,376C 286.337,361.498 259.671,346.165 233.5,330C 231.846,329.392 230.179,328.892 228.5,328.5C 226.934,326.125 224.601,324.958 221.5,325C 219.23,322.525 216.563,320.525 213.5,319C 211.655,317.872 209.655,317.372 207.5,317.5C 206.086,314.44 203.753,312.274 200.5,311C 189.337,304.919 178.337,298.586 167.5,292C 164.92,290.856 162.253,290.022 159.5,289.5C 158.167,227.833 158.167,166.167 159.5,104.5C 162.253,103.978 164.92,103.144 167.5,102C 185.784,91.3702 203.784,80.5369 221.5,69.5C 224.546,69.2753 226.879,67.942 228.5,65.5C 230.179,65.1077 231.846,64.6077 233.5,64C 259.671,47.835 286.337,32.5016 313.5,18C 314.833,17.3333 316.167,17.3333 317.5,18C 323.409,21.9581 329.743,24.7914 336.5,26.5 Z M 312.5,23.5 C 263.197,52.1536 213.864,80.8203 164.5,109.5C 163.338,167.459 163.171,225.459 164,283.5C 167.198,286.356 170.698,288.856 174.5,291C 212.096,312.134 249.43,333.801 286.5,356C 296.077,361.093 305.744,365.927 315.5,370.5C 322.934,367.284 330.267,363.784 337.5,360C 380.551,334.812 423.551,309.645 466.5,284.5C 467.662,226.541 467.829,168.541 467,110.5C 466.167,109 465,107.833 463.5,107C 415.178,79.3519 366.845,51.6852 318.5,24C 316.527,23.5045 314.527,23.3379 312.5,23.5 Z"/></g>
<g><path style="opacity:0.067" fill="#f2605b" d="M 336.5,26.5 C 329.743,24.7914 323.409,21.9581 317.5,18C 316.167,17.3333 314.833,17.3333 313.5,18C 286.337,32.5016 259.671,47.835 233.5,64C 231.846,64.6077 230.179,65.1077 228.5,65.5C 227.761,65.631 227.094,65.4643 226.5,65C 255.833,48 285.167,31 314.5,14C 315.944,13.2195 317.277,13.3861 318.5,14.5C 324.529,18.5102 330.529,22.5102 336.5,26.5 Z"/></g>
<g><path style="opacity:0.098" fill="#f25e59" d="M 362.5,41.5 C 377.998,49.4122 392.998,58.0789 407.5,67.5C 404.092,66.6332 400.758,65.4665 397.5,64C 386.663,57.414 375.663,51.0806 364.5,45C 363.177,44.1841 362.511,43.0174 362.5,41.5 Z"/></g>
<g><path style="opacity:0.067" fill="#f3625d" d="M 221.5,69.5 C 203.784,80.5369 185.784,91.3702 167.5,102C 164.92,103.144 162.253,103.978 159.5,104.5C 179.272,92.441 199.272,80.6076 219.5,69C 220.437,68.3083 221.103,68.475 221.5,69.5 Z"/></g>
<g><path style="opacity:0.681" fill="#ee3c35" d="M 473.5,77.5 C 475.411,78.075 477.078,79.075 478.5,80.5C 479.292,82.2572 480.625,83.5905 482.5,84.5C 481.037,91.1901 482.204,91.8568 486,86.5C 489.346,88.8258 492.513,91.3258 495.5,94C 494.833,94.3333 494.167,94.6667 493.5,95C 493.5,163 493.5,231 493.5,299C 494.167,299.333 494.833,299.667 495.5,300C 493.946,302.287 492.279,304.454 490.5,306.5C 482.54,311.15 474.54,315.816 466.5,320.5C 464.105,321.363 461.771,321.363 459.5,320.5C 460.186,318.936 460.019,317.269 459,315.5C 458.667,316.5 458.333,317.5 458,318.5C 457.833,317.833 457.667,317.167 457.5,316.5C 458.57,312.223 461.07,310.223 465,310.5C 467.028,307.072 469.861,305.572 473.5,306C 473.167,305.667 472.833,305.333 472.5,305C 475.569,302.265 478.403,302.098 481,304.5C 482.163,302.715 482.83,300.715 483,298.5C 484.308,299.151 485.141,298.485 485.5,296.5C 486.117,296.389 486.617,296.056 487,295.5C 487.667,229.833 487.667,164.167 487,98.5C 486.617,97.944 486.117,97.6107 485.5,97.5C 484.477,94.1642 482.144,92.6642 478.5,93C 479.167,92.6667 479.833,92.3333 480.5,92C 477.475,91.8665 474.808,90.8665 472.5,89C 474.211,87.8668 474.711,86.3668 474,84.5C 472.934,86.0995 471.434,87.0995 469.5,87.5C 465.815,86.759 465.149,85.259 467.5,83C 466.572,82.6121 465.905,81.9454 465.5,81C 465.692,74.1837 467.192,74.0171 470,80.5C 471.487,79.7471 471.654,78.9138 470.5,78C 471.448,77.5172 472.448,77.3505 473.5,77.5 Z"/></g>
<g><path style="opacity:0.015" fill="#ed1201" d="M 428.5,126.5 C 428.5,127.833 429.167,128.5 430.5,128.5C 431.543,140.975 432.209,153.475 432.5,166C 431.642,196.833 430.808,227.666 430,258.5C 428.57,264.728 427.236,271.061 426,277.5C 424.283,282.549 421.116,286.382 416.5,289C 406.843,294.266 396.509,297.266 385.5,298C 345.159,299.546 304.826,299.546 264.5,298C 260.066,296.617 255.732,294.95 251.5,293C 243.516,292.144 235.516,291.477 227.5,291C 218.804,288.977 211.637,284.477 206,277.5C 203.715,273.813 202.548,269.813 202.5,265.5C 202.662,263.473 202.495,261.473 202,259.5C 201.617,258.944 201.117,258.611 200.5,258.5C 199.131,246.468 199.298,234.468 201,222.5C 204.321,215.362 207.487,208.196 210.5,201C 210.659,192.337 208.826,184.17 205,176.5C 203.459,164.469 201.292,152.636 198.5,141C 199.623,132.087 203.623,124.753 210.5,119C 235.231,106.352 261.564,100.519 289.5,101.5C 306.157,102.558 322.824,102.725 339.5,102C 358.919,98.8019 378.419,96.3019 398,94.5C 412.908,95.3947 422.575,103.061 427,117.5C 427.953,120.432 428.453,123.432 428.5,126.5 Z"/></g>
<g><path style="opacity:0.067" fill="#f3635e" d="M 423.5,77.5 C 423.897,76.475 424.563,76.3083 425.5,77C 441.5,86.3333 457.5,95.6667 473.5,105C 472.906,105.464 472.239,105.631 471.5,105.5C 454.805,97.1597 438.805,87.8264 423.5,77.5 Z"/></g>
<g><path style="opacity:0.988" fill="#ef524d" d="M 145.5,96.5 C 148.001,96.5109 148.168,97.1776 146,98.5C 145.833,131.5 145.667,164.5 145.5,197.5C 145.504,230.879 146.17,264.046 147.5,297C 146.584,297.374 145.75,297.874 145,298.5C 143.836,265.143 143.336,231.643 143.5,198C 143.667,164.833 143.833,131.667 144,98.5C 144.717,97.9558 145.217,97.2891 145.5,96.5 Z"/></g>
<g><path style="opacity:0.874" fill="#ef5550" d="M 485.5,97.5 C 486.117,97.6107 486.617,97.944 487,98.5C 487.667,164.167 487.667,229.833 487,295.5C 486.617,296.056 486.117,296.389 485.5,296.5C 485.5,230.167 485.5,163.833 485.5,97.5 Z"/></g>
<g><path style="opacity:0.19" fill="#ee4844" d="M 134.5,94.5 C 134.892,96.1789 135.392,97.8455 136,99.5C 136.667,164.5 136.667,229.5 136,294.5C 135.392,296.154 134.892,297.821 134.5,299.5C 133.504,299.586 132.671,299.252 132,298.5C 131.333,230.833 131.333,163.167 132,95.5C 132.671,94.7476 133.504,94.4142 134.5,94.5 Z"/></g>
<g><path style="opacity:0.19" fill="#ee4642" d="M 478.5,80.5 C 483.012,83.2566 487.679,85.7566 492.5,88C 495.014,90.2832 497.18,92.7832 499,95.5C 499.667,163.167 499.667,230.833 499,298.5C 496.966,302.035 494.133,304.701 490.5,306.5C 492.279,304.454 493.946,302.287 495.5,300C 494.833,299.667 494.167,299.333 493.5,299C 493.5,231 493.5,163 493.5,95C 494.167,94.6667 494.833,94.3333 495.5,94C 492.513,91.3258 489.346,88.8258 486,86.5C 482.204,91.8568 481.037,91.1901 482.5,84.5C 480.625,83.5905 479.292,82.2572 478.5,80.5 Z"/></g>
<g><path style="opacity:0.102" fill="#ef4845" d="M 407.5,101.5 C 400.208,100.443 394.374,100.443 390,101.5C 389.5,101.667 389,101.833 388.5,102C 390.002,102.583 391.335,103.416 392.5,104.5C 391.32,107.081 390.32,106.914 389.5,104C 387.2,103.342 384.867,102.842 382.5,102.5C 381.167,103.167 379.833,103.833 378.5,104.5C 375.846,103.732 373.179,103.566 370.5,104C 371.793,104.49 373.127,104.657 374.5,104.5C 374.605,109.154 373.271,109.654 370.5,106C 369.5,105.333 368.5,105.333 367.5,106C 370.763,106.869 371.096,108.203 368.5,110C 378.902,109.988 389.235,109.321 399.5,108C 380.146,110.504 360.812,113.337 341.5,116.5C 340.5,116.333 339.5,116.167 338.5,116C 345.026,114.113 351.692,112.946 358.5,112.5C 358.917,107.932 356.917,106.432 352.5,108C 353.517,109.049 353.684,110.216 353,111.5C 352.5,110.333 351.667,109.5 350.5,109C 348.444,108.689 346.444,108.189 344.5,107.5C 343.107,108.863 341.441,109.696 339.5,110C 340.741,111.487 340.241,112.32 338,112.5C 318.522,112.218 299.022,112.051 279.5,112C 280.5,111.5 281.5,111 282.5,110.5C 288.024,110.64 293.524,110.973 299,111.5C 300.225,111.138 301.391,110.638 302.5,110C 308.5,109.667 314.5,109.333 320.5,109C 301.141,108.169 287.141,108.335 278.5,109.5C 278.5,110.5 278.5,111.5 278.5,112.5C 275.813,112.336 273.146,112.503 270.5,113C 280.5,113.333 290.5,113.667 300.5,114C 302.044,114.29 303.377,114.956 304.5,116C 283.605,115.688 262.939,117.355 242.5,121C 244.413,119.209 246.08,117.209 247.5,115C 250.786,114.073 253.952,113.907 257,114.5C 261.018,114.083 264.852,113.083 268.5,111.5C 265.979,110.034 263.312,109.534 260.5,110C 261.624,110.249 262.624,110.749 263.5,111.5C 262.833,111.833 262.167,112.167 261.5,112.5C 255.594,110.274 249.594,109.941 243.5,111.5C 251.878,109.132 260.545,107.632 269.5,107C 291.18,106.485 312.846,106.485 334.5,107C 355.84,104.054 377.173,101.22 398.5,98.5C 401.793,98.9757 404.793,99.9757 407.5,101.5 Z"/></g>
<g><path style="opacity:1" fill="#ee3e38" d="M 407.5,101.5 C 411.302,102.779 414.469,105.112 417,108.5C 423.273,119.258 426.273,130.925 426,143.5C 426.392,179.837 426.058,216.171 425,252.5C 424.846,262.262 422.846,271.596 419,280.5C 415.636,284.265 411.469,286.599 406.5,287.5C 402.739,289.434 399.573,288.767 397,285.5C 396.745,282.858 397.911,281.025 400.5,280C 389.597,282.665 378.43,284.165 367,284.5C 356.513,283.475 346.013,283.308 335.5,284C 345.66,284.629 355.827,285.129 366,285.5C 373.412,285.577 380.746,284.911 388,283.5C 389.169,284.009 390.002,284.842 390.5,286C 389.167,287.84 389.334,288.34 391,287.5C 395.155,290.845 394.322,291.345 388.5,289C 387.784,284.535 386.451,284.368 384.5,288.5C 385.381,289.971 386.714,290.804 388.5,291C 385.096,291.221 381.762,290.721 378.5,289.5C 377.494,289.938 377.494,290.604 378.5,291.5C 377.624,292.251 376.624,292.751 375.5,293C 348.5,293.667 321.5,293.667 294.5,293C 298.687,292.572 302.354,291.572 305.5,290C 303.941,289.02 302.274,288.187 300.5,287.5C 301.667,287.167 302.833,286.833 304,286.5C 313.87,286.16 323.703,285.66 333.5,285C 326.501,285.824 319.501,285.657 312.5,284.5C 306.8,284.631 301.134,285.131 295.5,286C 299.213,286.23 299.88,287.397 297.5,289.5C 293.656,290.982 289.656,291.815 285.5,292C 286.833,292.333 288.167,292.667 289.5,293C 286.854,293.497 284.187,293.664 281.5,293.5C 270.804,293.583 260.471,291.75 250.5,288C 234.211,290.346 220.711,285.512 210,273.5C 209,271.5 208,269.5 207,267.5C 205.55,252.526 205.216,237.526 206,222.5C 208.468,216.181 211.634,210.181 215.5,204.5C 214.704,197.883 214.204,191.217 214,184.5C 212.289,182.044 210.956,179.377 210,176.5C 209.182,169.074 207.848,161.741 206,154.5C 203.363,145.481 204.03,136.814 208,128.5C 209.5,126.333 211.333,124.5 213.5,123C 223.176,118.057 233.176,114.223 243.5,111.5C 249.594,109.941 255.594,110.274 261.5,112.5C 262.167,112.167 262.833,111.833 263.5,111.5C 262.624,110.749 261.624,110.249 260.5,110C 263.312,109.534 265.979,110.034 268.5,111.5C 264.852,113.083 261.018,114.083 257,114.5C 253.952,113.907 250.786,114.073 247.5,115C 246.08,117.209 244.413,119.209 242.5,121C 262.939,117.355 283.605,115.688 304.5,116C 303.377,114.956 302.044,114.29 300.5,114C 290.5,113.667 280.5,113.333 270.5,113C 273.146,112.503 275.813,112.336 278.5,112.5C 278.5,111.5 278.5,110.5 278.5,109.5C 287.141,108.335 301.141,108.169 320.5,109C 314.5,109.333 308.5,109.667 302.5,110C 301.391,110.638 300.225,111.138 299,111.5C 293.524,110.973 288.024,110.64 282.5,110.5C 281.5,111 280.5,111.5 279.5,112C 299.022,112.051 318.522,112.218 338,112.5C 340.241,112.32 340.741,111.487 339.5,110C 341.441,109.696 343.107,108.863 344.5,107.5C 346.444,108.189 348.444,108.689 350.5,109C 351.667,109.5 352.5,110.333 353,111.5C 353.684,110.216 353.517,109.049 352.5,108C 356.917,106.432 358.917,107.932 358.5,112.5C 351.692,112.946 345.026,114.113 338.5,116C 339.5,116.167 340.5,116.333 341.5,116.5C 360.812,113.337 380.146,110.504 399.5,108C 389.235,109.321 378.902,109.988 368.5,110C 371.096,108.203 370.763,106.869 367.5,106C 368.5,105.333 369.5,105.333 370.5,106C 373.271,109.654 374.605,109.154 374.5,104.5C 373.127,104.657 371.793,104.49 370.5,104C 373.179,103.566 375.846,103.732 378.5,104.5C 379.833,103.833 381.167,103.167 382.5,102.5C 384.867,102.842 387.2,103.342 389.5,104C 390.32,106.914 391.32,107.081 392.5,104.5C 391.335,103.416 390.002,102.583 388.5,102C 389,101.833 389.5,101.667 390,101.5C 394.374,100.443 400.208,100.443 407.5,101.5 Z"/></g>
<g><path style="opacity:0.004" fill="#000000" d="M 428.5,126.5 C 429.5,126.833 430.167,127.5 430.5,128.5C 429.167,128.5 428.5,127.833 428.5,126.5 Z"/></g>
<g><path style="opacity:1" fill="#f7b7b6" d="M 291.5,183.5 C 290.834,175.674 290.5,167.674 290.5,159.5C 290.278,148.735 290.945,138.069 292.5,127.5C 280.149,127.168 267.815,127.501 255.5,128.5C 256.246,129.736 256.579,131.07 256.5,132.5C 254.641,131.406 252.641,130.573 250.5,130C 249.663,128.989 249.33,127.822 249.5,126.5C 267.167,126.5 284.833,126.5 302.5,126.5C 302.649,127.552 302.483,128.552 302,129.5C 299.455,130.522 296.955,131.688 294.5,133C 293.107,134.171 292.273,135.671 292,137.5C 291.5,152.83 291.333,168.163 291.5,183.5 Z"/></g>
<g><path style="opacity:1" fill="#f9d5d4" d="M 291.5,183.5 C 291.335,187.182 291.501,190.848 292,194.5C 298.369,188.298 304.536,181.965 310.5,175.5C 311.822,175.67 312.989,175.337 314,174.5C 314.708,175.381 315.542,176.047 316.5,176.5C 315.222,178.544 315.388,180.544 317,182.5C 331.424,203.022 345.59,223.689 359.5,244.5C 358.504,244.586 357.671,244.252 357,243.5C 354.538,238.891 351.371,234.891 347.5,231.5C 345.313,228.821 343.813,225.821 343,222.5C 340.939,218.988 338.439,215.988 335.5,213.5C 333.833,211.5 332.167,209.5 330.5,207.5C 330.657,206.127 330.49,204.793 330,203.5C 323.066,196.414 317.566,188.414 313.5,179.5C 311.801,179.34 310.134,179.506 308.5,180C 304.318,184.015 300.318,188.182 296.5,192.5C 294.914,194.173 294.247,196.173 294.5,198.5C 293.542,198.047 292.708,197.381 292,196.5C 291.506,198.134 291.34,199.801 291.5,201.5C 290.883,201.611 290.383,201.944 290,202.5C 289.167,221.176 289.334,239.842 290.5,258.5C 292.287,260.858 293.287,263.525 293.5,266.5C 280.816,266.832 268.149,266.499 255.5,265.5C 256.246,264.264 256.579,262.93 256.5,261.5C 258.61,260.547 259.777,258.881 260,256.5C 260.667,216.5 260.667,176.5 260,136.5C 259.34,134.676 258.173,133.343 256.5,132.5C 256.579,131.07 256.246,129.736 255.5,128.5C 267.815,127.501 280.149,127.168 292.5,127.5C 290.945,138.069 290.278,148.735 290.5,159.5C 290.5,167.674 290.834,175.674 291.5,183.5 Z"/></g>
<g><path style="opacity:1" fill="#fdf2f2" d="M 263.5,128.5 C 271.174,128.334 278.841,128.5 286.5,129C 287.624,129.839 288.291,131.006 288.5,132.5C 288.024,176.881 288.024,221.048 288.5,265C 279.785,265.804 271.118,265.637 262.5,264.5C 262.167,242 261.833,219.5 261.5,197C 261.51,173.951 262.177,151.118 263.5,128.5 Z"/></g>
<g><path style="opacity:1" fill="#fefdfd" d="M 269.5,131.5 C 274.267,131.191 278.934,131.691 283.5,133C 284.081,133.893 284.415,134.893 284.5,136C 284.267,176.831 284.267,217.665 284.5,258.5C 284.392,259.442 284.059,260.275 283.5,261C 277.565,263.125 271.731,262.958 266,260.5C 265.333,218.167 265.333,175.833 266,133.5C 267.302,132.915 268.469,132.249 269.5,131.5 Z"/></g>
<g><path style="opacity:1" fill="#f6b6b5" d="M 316.5,176.5 C 315.542,176.047 314.708,175.381 314,174.5C 312.989,175.337 311.822,175.67 310.5,175.5C 323.161,162.672 335.661,149.672 348,136.5C 348.667,135.167 348.667,133.833 348,132.5C 345.978,131.214 343.811,130.214 341.5,129.5C 340.614,128.675 340.281,127.675 340.5,126.5C 351.167,126.5 361.833,126.5 372.5,126.5C 372.719,127.675 372.386,128.675 371.5,129.5C 367.317,130.505 363.317,132.005 359.5,134C 345.299,148.369 330.965,162.535 316.5,176.5 Z"/></g>
<g><path style="opacity:0.894" fill="#f26e69" d="M 415.5,133.5 C 416.309,135.292 416.809,137.292 417,139.5C 417.667,160.167 417.667,180.833 417,201.5C 416.731,178.822 416.231,156.155 415.5,133.5 Z"/></g>
<g><path style="opacity:1" fill="#fefbfb" d="M 330.5,207.5 C 332.167,209.5 333.833,211.5 335.5,213.5C 339.343,223.515 344.509,232.848 351,241.5C 352.011,242.337 353.178,242.67 354.5,242.5C 355.201,244.908 356.201,247.242 357.5,249.5C 361.045,253.221 364.045,257.388 366.5,262C 365.833,262.667 365.167,263.333 364.5,264C 356.833,264.667 349.167,264.667 341.5,264C 341,263.5 340.5,263 340,262.5C 337.938,250.689 332.104,241.355 322.5,234.5C 316.625,222.432 309.458,211.099 301,200.5C 299.627,198.305 299.294,195.971 300,193.5C 302.833,190.667 305.667,187.833 308.5,185C 309.833,184.333 311.167,184.333 312.5,185C 317.466,193.49 323.466,200.99 330.5,207.5 Z"/></g>
<g><path style="opacity:1" fill="#fbe2e1" d="M 330.5,207.5 C 323.466,200.99 317.466,193.49 312.5,185C 311.167,184.333 309.833,184.333 308.5,185C 305.667,187.833 302.833,190.667 300,193.5C 299.294,195.971 299.627,198.305 301,200.5C 309.458,211.099 316.625,222.432 322.5,234.5C 332.104,241.355 337.938,250.689 340,262.5C 340.5,263 341,263.5 341.5,264C 349.167,264.667 356.833,264.667 364.5,264C 365.167,263.333 365.833,262.667 366.5,262C 364.045,257.388 361.045,253.221 357.5,249.5C 356.201,247.242 355.201,244.908 354.5,242.5C 353.178,242.67 352.011,242.337 351,241.5C 344.509,232.848 339.343,223.515 335.5,213.5C 338.439,215.988 340.939,218.988 343,222.5C 343.813,225.821 345.313,228.821 347.5,231.5C 351.371,234.891 354.538,238.891 357,243.5C 357.671,244.252 358.504,244.586 359.5,244.5C 363.411,250.749 368.078,256.415 373.5,261.5C 374.038,263.117 374.371,264.784 374.5,266.5C 361.816,266.832 349.149,266.499 336.5,265.5C 335.933,263.018 335.266,260.684 334.5,258.5C 333.955,256.407 333.122,254.407 332,252.5C 319.234,234.616 306.734,216.616 294.5,198.5C 294.247,196.173 294.914,194.173 296.5,192.5C 300.318,188.182 304.318,184.015 308.5,180C 310.134,179.506 311.801,179.34 313.5,179.5C 317.566,188.414 323.066,196.414 330,203.5C 330.49,204.793 330.657,206.127 330.5,207.5 Z"/></g>
<g><path style="opacity:1" fill="#f7bcbb" d="M 291.5,201.5 C 291.333,219.503 291.5,237.503 292,255.5C 293.072,260.483 296.238,263.316 301.5,264C 302.337,265.011 302.67,266.178 302.5,267.5C 284.833,267.5 267.167,267.5 249.5,267.5C 249.33,266.178 249.663,265.011 250.5,264C 252.641,263.427 254.641,262.594 256.5,261.5C 256.579,262.93 256.246,264.264 255.5,265.5C 268.149,266.499 280.816,266.832 293.5,266.5C 293.287,263.525 292.287,260.858 290.5,258.5C 289.334,239.842 289.167,221.176 290,202.5C 290.383,201.944 290.883,201.611 291.5,201.5 Z"/></g>
<g><path style="opacity:0.004" fill="#000000" d="M 200.5,258.5 C 201.117,258.611 201.617,258.944 202,259.5C 202.495,261.473 202.662,263.473 202.5,265.5C 200.656,263.721 199.99,261.388 200.5,258.5 Z"/></g>
<g><path style="opacity:1" fill="#f7b0ae" d="M 334.5,258.5 C 335.266,260.684 335.933,263.018 336.5,265.5C 349.149,266.499 361.816,266.832 374.5,266.5C 374.371,264.784 374.038,263.117 373.5,261.5C 375.722,262.688 378.055,263.688 380.5,264.5C 381.386,265.325 381.719,266.325 381.5,267.5C 363.5,267.5 345.5,267.5 327.5,267.5C 327.281,266.325 327.614,265.325 328.5,264.5C 332.225,264.109 334.225,262.109 334.5,258.5 Z"/></g>
<g><path style="opacity:0.163" fill="#ef4b48" d="M 406.5,287.5 C 397.781,291.684 388.448,293.851 378.5,294C 352.939,294.446 327.439,294.946 302,295.5C 294.986,295.134 288.153,294.467 281.5,293.5C 284.187,293.664 286.854,293.497 289.5,293C 288.167,292.667 286.833,292.333 285.5,292C 289.656,291.815 293.656,290.982 297.5,289.5C 299.88,287.397 299.213,286.23 295.5,286C 301.134,285.131 306.8,284.631 312.5,284.5C 319.501,285.657 326.501,285.824 333.5,285C 323.703,285.66 313.87,286.16 304,286.5C 302.833,286.833 301.667,287.167 300.5,287.5C 302.274,288.187 303.941,289.02 305.5,290C 302.354,291.572 298.687,292.572 294.5,293C 321.5,293.667 348.5,293.667 375.5,293C 376.624,292.751 377.624,292.251 378.5,291.5C 377.494,290.604 377.494,289.938 378.5,289.5C 381.762,290.721 385.096,291.221 388.5,291C 386.714,290.804 385.381,289.971 384.5,288.5C 386.451,284.368 387.784,284.535 388.5,289C 394.322,291.345 395.155,290.845 391,287.5C 389.334,288.34 389.167,287.84 390.5,286C 390.002,284.842 389.169,284.009 388,283.5C 380.746,284.911 373.412,285.577 366,285.5C 355.827,285.129 345.66,284.629 335.5,284C 346.013,283.308 356.513,283.475 367,284.5C 378.43,284.165 389.597,282.665 400.5,280C 397.911,281.025 396.745,282.858 397,285.5C 399.573,288.767 402.739,289.434 406.5,287.5 Z"/></g>
<g><path style="opacity:0.055" fill="#f3645e" d="M 159.5,289.5 C 162.253,290.022 164.92,290.856 167.5,292C 178.337,298.586 189.337,304.919 200.5,311C 203.753,312.274 206.086,314.44 207.5,317.5C 191.164,308.668 175.164,299.335 159.5,289.5 Z"/></g>
<g><path style="opacity:0.067" fill="#f2605a" d="M 404.5,328.5 C 391.268,336.814 377.268,344.814 362.5,352.5C 362.511,350.983 363.177,349.816 364.5,349C 375.663,342.919 386.663,336.586 397.5,330C 399.866,329.56 402.199,329.06 404.5,328.5 Z"/></g>
<g><path style="opacity:0.071" fill="#f2625c" d="M 228.5,328.5 C 230.179,328.892 231.846,329.392 233.5,330C 259.671,346.165 286.337,361.498 313.5,376C 314.833,376.667 316.167,376.667 317.5,376C 323.409,372.042 329.743,369.209 336.5,367.5C 329.732,372.059 322.732,376.392 315.5,380.5C 285.833,363.333 256.167,346.167 226.5,329C 227.094,328.536 227.761,328.369 228.5,328.5 Z"/></g>
</svg>
