<?xml version="1.0" encoding="UTF-8"?>
<!DOCTYPE svg PUBLIC "-//W3C//DTD SVG 1.1//EN" "http://www.w3.org/Graphics/SVG/1.1/DTD/svg11.dtd">
<svg xmlns="http://www.w3.org/2000/svg" version="1.1" width="396px" height="383px" style="shape-rendering:geometricPrecision; text-rendering:geometricPrecision; image-rendering:optimizeQuality; fill-rule:evenodd; clip-rule:evenodd" xmlns:xlink="http://www.w3.org/1999/xlink">
<g><path style="opacity:1" fill="#fffcfc" d="M -0.5,-0.5 C 131.5,-0.5 263.5,-0.5 395.5,-0.5C 395.5,127.167 395.5,254.833 395.5,382.5C 381.833,382.5 368.167,382.5 354.5,382.5C 376.488,378.678 389.321,365.678 393,343.5C 393.667,241.167 393.667,138.833 393,36.5C 387.668,16.4959 374.835,4.99591 354.5,2C 249.167,1.33333 143.833,1.33333 38.5,2C 20.3333,6.83333 8.83333,18.3333 4,36.5C 3.33333,138.833 3.33333,241.167 4,343.5C 7.29829,364.297 19.1316,377.297 39.5,382.5C 26.1667,382.5 12.8333,382.5 -0.5,382.5C -0.5,254.833 -0.5,127.167 -0.5,-0.5 Z"/></g>
<g><path style="opacity:1" fill="#fe020a" d="M 354.5,382.5 C 249.5,382.5 144.5,382.5 39.5,382.5C 19.1316,377.297 7.29829,364.297 4,343.5C 3.33333,241.167 3.33333,138.833 4,36.5C 8.83333,18.3333 20.3333,6.83333 38.5,2C 143.833,1.33333 249.167,1.33333 354.5,2C 374.835,4.99591 387.668,16.4959 393,36.5C 393.667,138.833 393.667,241.167 393,343.5C 389.321,365.678 376.488,378.678 354.5,382.5 Z"/></g>
<g><path style="opacity:1" fill="#fffbfb" d="M 271.5,98.5 C 272.398,97.8423 273.398,97.1757 274.5,96.5C 274.167,96.1667 273.833,95.8333 273.5,95.5C 270.724,97.1298 267.724,97.7965 264.5,97.5C 260.486,97.3345 256.486,97.5012 252.5,98C 242,109.167 231.5,120.333 221,131.5C 220.667,132.5 220.333,133.5 220,134.5C 209.948,143.218 200.615,152.552 192,162.5C 191.612,169.325 194.279,174.658 200,178.5C 206.395,187.544 212.729,196.544 219,205.5C 223.439,209.027 227.439,213.027 231,217.5C 240.937,231.435 251.604,244.768 263,257.5C 266.258,263.753 270.591,269.086 276,273.5C 277.54,277.419 279.707,280.919 282.5,284C 289.167,284.333 295.833,284.667 302.5,285C 308.089,289.515 307.756,293.348 301.5,296.5C 299.5,296 297.5,295.5 295.5,295C 266.502,294.5 237.502,294.333 208.5,294.5C 207.846,290.317 209.512,287.484 213.5,286C 219.825,285.5 226.158,285.334 232.5,285.5C 232.736,282.774 231.903,280.441 230,278.5C 213.158,259.336 197.491,239.336 183,218.5C 174.528,210.205 167.028,201.205 160.5,191.5C 159.675,190.614 158.675,190.281 157.5,190.5C 157.333,221.502 157.5,252.502 158,283.5C 158.374,284.416 158.874,285.25 159.5,286C 166.5,286.333 173.5,286.667 180.5,287C 183.941,288.318 185.275,290.818 184.5,294.5C 159.522,295.452 134.522,295.785 109.5,295.5C 109.649,294.448 109.483,293.448 109,292.5C 105.707,294.208 102.207,295.208 98.5,295.5C 97.3915,294.71 96.0581,294.21 94.5,294C 95.3363,292.757 95.003,291.59 93.5,290.5C 92.269,291.651 92.269,292.817 93.5,294C 92.9056,294.464 92.2389,294.631 91.5,294.5C 89.9562,291.371 90.9562,289.205 94.5,288C 100.779,286.219 107.113,286.052 113.5,287.5C 115.425,287.41 116.592,286.41 117,284.5C 117.667,223.167 117.667,161.833 117,100.5C 116.5,100 116,99.5 115.5,99C 112.183,98.5017 108.85,98.335 105.5,98.5C 105.657,97.1266 105.49,95.7932 105,94.5C 102.882,95.2829 101.382,96.6162 100.5,98.5C 97.4816,98.6646 94.4816,98.498 91.5,98C 89.7888,96.8668 89.2888,95.3668 90,93.5C 91.1667,92.3333 92.3333,91.1667 93.5,90C 118.329,90.7844 143.163,90.6177 168,89.5C 173.497,89.2998 178.83,89.9665 184,91.5C 184.779,93.8071 184.279,95.8071 182.5,97.5C 176.341,98.6788 170.174,98.6788 164,97.5C 161.333,97.1667 159.333,98.1667 158,100.5C 156,128.5 156,156.5 158,184.5C 158.308,185.308 158.808,185.975 159.5,186.5C 166.732,181.117 172.232,174.45 176,166.5C 180.131,162.542 184.464,158.875 189,155.5C 189.333,154.5 189.667,153.5 190,152.5C 204.682,135.155 220.015,118.488 236,102.5C 236.72,100.888 236.554,99.3876 235.5,98C 226.84,97.5002 218.173,97.3336 209.5,97.5C 208.875,94.0295 209.875,91.1962 212.5,89C 226.629,89.104 240.796,88.9374 255,88.5C 263.597,88.3615 272.097,88.8615 280.5,90C 283.1,92.459 283.1,94.959 280.5,97.5C 277.572,98.4841 274.572,98.8174 271.5,98.5 Z"/></g>
<g><path style="opacity:1" fill="#ff5b5a" d="M 92.5,92.5 C 94.1992,92.3398 95.8659,92.5065 97.5,93C 95.6711,93.2735 94.1711,94.1068 93,95.5C 92.5172,94.552 92.3505,93.552 92.5,92.5 Z"/></g>
<g><path style="opacity:1" fill="#fe494e" d="M 259.5,92.5 C 261.337,92.6395 261.67,93.3061 260.5,94.5C 259.702,94.0431 259.369,93.3764 259.5,92.5 Z"/></g>
<g><path style="opacity:1" fill="#ff7676" d="M 105.5,98.5 C 103.833,98.5 102.167,98.5 100.5,98.5C 101.382,96.6162 102.882,95.2829 105,94.5C 105.49,95.7932 105.657,97.1266 105.5,98.5 Z"/></g>
<g><path style="opacity:1" fill="#ff9b9e" d="M 271.5,98.5 C 268.941,98.8016 266.607,98.4682 264.5,97.5C 267.724,97.7965 270.724,97.1298 273.5,95.5C 273.833,95.8333 274.167,96.1667 274.5,96.5C 273.398,97.1757 272.398,97.8423 271.5,98.5 Z"/></g>
<g><path style="opacity:1" fill="#ff6463" d="M 98.5,295.5 C 95.9407,295.802 93.6074,295.468 91.5,294.5C 92.2389,294.631 92.9056,294.464 93.5,294C 92.269,292.817 92.269,291.651 93.5,290.5C 95.003,291.59 95.3363,292.757 94.5,294C 96.0581,294.21 97.3915,294.71 98.5,295.5 Z"/></g>
</svg>
